<?xml version="1.0" encoding="UTF-8"?>
<svg id="Layer_2" xmlns="http://www.w3.org/2000/svg" version="1.1" viewBox="0 0 62.8 65.7">
  <!-- Generator: Adobe Illustrator 29.2.1, SVG Export Plug-In . SVG Version: 2.1.0 Build 116)  -->
  <defs>
    <style>
      .st0 {
        fill: none;
        stroke: #26441f;
        stroke-linecap: round;
        stroke-miterlimit: 10;
        stroke-width: 2.1px;
      }
    </style>
  </defs>
  <g id="Layer_1-2">
    <g>
      <path class="st0" d="M40.9,36.9c3.5-3.7,6.6-8.3,9.1-14.1"/>
      <path class="st0" d="M38.8,39.1c.2-.2.1,0,.4-.3"/>
      <path class="st0" d="M1.3,50.9s19.5,3,35.3-10"/>
      <path class="st0" d="M13.8,47s3.1-7.7,9.4-12.2"/>
      <path class="st0" d="M55.3,37.6s-10.2,22.8-36.8,15.8"/>
      <path class="st0" d="M50.5,35.4s2.6-.8,4.8-1.6c1.8-.6,3.2-2,4-3.7,3.9-8.9,2.9-17.4-5.2-19.1-8.8-1.8-13.5,10.2-16.8,14.5-1.7,2.2-4.2,3.8-6.2,4.8s-3.7,3-4.4,5.4l-1.3,4.9"/>
    </g>
  </g>
</svg>