<?xml version="1.0" encoding="UTF-8"?>
<svg id="Layer_1" xmlns="http://www.w3.org/2000/svg" version="1.1" viewBox="0 0 800 800">
  <!-- Generator: Adobe Illustrator 29.2.1, SVG Export Plug-In . SVG Version: 2.1.0 Build 116)  -->
  <defs>
    <style>
      .st0 {
        fill-rule: evenodd;
      }
    </style>
  </defs>
  <path class="st0" d="M400,117.1c-39.9,0-74.7,22.3-92.5,55.2,36.7,4.2,62.6,12.1,92.5,26.1,29.9-14,55.7-21.9,92.5-26.1-17.8-32.8-52.5-55.2-92.5-55.2ZM400,66.7c-67.1,0-124.2,42.5-146,102-34.9-1.2-78.9-1.2-137.5-1.2h-2.2c-13.9,0-25.2,11.3-25.2,25.2v521.1c0,13.9,11.3,25.2,25.2,25.2h386.6c116,0,210.1-94.1,210.1-210.1V192.7c0-13.9-11.3-25.2-25.2-25.2h-2.2c-58.5,0-102.5,0-137.5,1.2-21.8-59.5-78.9-102-146-102ZM139.5,217.9v470.6h361.4c88.2,0,159.7-71.5,159.7-159.7V217.9c-77.7,0-124.5.4-159.1,4.1-36.5,3.8-58.8,11.2-90.1,26.9-7.1,3.5-15.5,3.5-22.5,0-31.3-15.6-53.6-23-90.1-26.9-34.7-3.6-81.4-4-159.1-4.1ZM206.7,402.8c0-41.8,33.9-75.6,75.6-75.6s75.6,33.9,75.6,75.6-33.9,75.6-75.6,75.6-75.6-33.9-75.6-75.6ZM282.3,276.8c-69.6,0-126.1,56.4-126.1,126.1s56.4,126.1,126.1,126.1,9.4-.3,14-.8l85.8,85.8c9.8,9.8,25.8,9.8,35.7,0,0,0,0,0,0,0l85.8-85.8c4.6.5,9.3.8,14,.8,69.6,0,126.1-56.4,126.1-126.1s-56.4-126.1-126.1-126.1-99.4,33.5-117.7,80.7c-18.2-47.2-64-80.7-117.7-80.7ZM450.8,509.7c-23.1-14.5-40.9-36.1-50.8-61.5-9.8,25.4-27.7,47-50.8,61.5l50.8,50.8,50.8-50.8ZM517.7,327.2c-41.8,0-75.6,33.9-75.6,75.6s33.9,75.6,75.6,75.6,75.6-33.9,75.6-75.6-33.9-75.6-75.6-75.6ZM316,402.8c0,18.6-15.1,33.6-33.6,33.6s-33.6-15.1-33.6-33.6,15.1-33.6,33.6-33.6,33.6,15.1,33.6,33.6ZM517.7,436.4c18.6,0,33.6-15.1,33.6-33.6s-15.1-33.6-33.6-33.6-33.6,15.1-33.6,33.6,15.1,33.6,33.6,33.6Z"/>
</svg>