<?xml version="1.0" encoding="UTF-8"?>
<svg id="Layer_2" xmlns="http://www.w3.org/2000/svg" version="1.1" viewBox="0 0 86.8 86.8">
  <!-- Generator: Adobe Illustrator 29.2.1, SVG Export Plug-In . SVG Version: 2.1.0 Build 116)  -->
  <defs>
    <style>
      .st0 {
        fill: #fff;
      }
    </style>
  </defs>
  <path class="st0" d="M12.3,73.7c.7.7,1.4,1.3,2.1,2,7.7,6.9,17.9,11.2,29.1,11.2,24,0,43.4-19.4,43.4-43.4S67.4,0,43.4,0,0,19.4,0,43.4s4.7,22.4,12.3,30.2ZM27.5,27.8c-1.2-.6-1.8-2.1-1.2-3.3.6-1.2,2.1-1.8,3.3-1.2l37.8,17.8c.9.4,1.4,1.3,1.4,2.3s-.5,1.8-1.4,2.3l-37.8,17.8c-.3.2-.7.2-1.1.2-.9,0-1.8-.5-2.3-1.4-.6-1.2,0-2.7,1.2-3.3l33-15.6-33-15.6Z"/>
</svg>