<?xml version="1.0" encoding="UTF-8"?>
<svg id="Layer_1" xmlns="http://www.w3.org/2000/svg" version="1.1" viewBox="0 0 800 800">
  <!-- Generator: Adobe Illustrator 29.2.1, SVG Export Plug-In . SVG Version: 2.1.0 Build 116)  -->
  <defs>
    <style>
      .st0 {
        fill: #26441f;
      }

      .st1 {
        display: none;
        fill: none;
        stroke: #000;
        stroke-linecap: round;
        stroke-linejoin: round;
        stroke-width: 50px;
      }
    </style>
  </defs>
  <path class="st1" d="M700.2,591.2c0,9.7-1.9,19.3-5.7,28.3-3.7,9-9.2,17.1-16.1,23.9l-23.7,24c-16.3,16.5-37.4,27.4-60.3,31.1-22.9,3.8-46.3.2-67.1-10.1-178.4-91.8-323.7-237-415.7-415.3-10.4-20.8-13.9-44.3-10-67.1,3.8-22.9,14.8-44,31.4-60.2l23.7-24c13.9-13.8,32.6-21.5,52.2-21.5s38.3,7.7,52.2,21.5l52.3,52.3c13.8,13.9,21.5,32.6,21.5,52.2s-7.7,38.3-21.5,52.2l-44.3,44.3c29.3,39.7,61.5,77.1,96.3,112,34.6,34.7,71.8,66.7,111.3,95.7l1,1,44.3-44.3c6.8-6.9,14.9-12.4,23.9-16.1,9-3.7,18.6-5.7,28.3-5.7s19.3,1.9,28.3,5.7c9,3.7,17.1,9.2,23.9,16.1l52,52c6.9,6.8,12.4,14.9,16.1,23.9,3.7,8.9,5.7,18.6,5.7,28.3Z"/>
  <path class="st0" d="M576.5,712.9c-19,0-38-4.5-55-13h-.1c-90-46.4-171.9-106.1-243.5-177.7-71.6-71.5-131.4-153.4-177.8-243.3v-.2c-11.8-23.4-15.6-49.4-11.3-75.1,4.3-25.7,16.4-49,35-67.3l23.7-24c16.4-16.3,38.2-25.3,61.3-25.3s44.9,9,61.3,25.3l52.4,52.4c16.3,16.4,25.3,38.2,25.3,61.4s-9,44.9-25.3,61.3c-21,21-22.5,55.1-3.4,77.6,17.6,20.8,36.2,41.1,55.4,60.4,13,13,34.5,32.2,62.4,55.6,10.1,8.5,22.9,13.1,36.1,13.1s29.1-5.8,39.8-16.5c8-8.1,17.5-14.5,28.1-18.9,10.6-4.4,21.8-6.7,33.3-6.7s22.7,2.2,33.3,6.7c10.6,4.4,20,10.8,28.1,19l51.9,52c8.1,8,14.5,17.5,18.9,28.1,4.4,10.6,6.7,21.8,6.7,33.3s-2.2,22.7-6.7,33.3c-4.4,10.5-10.8,20-18.9,28.1l-23.6,23.9c-18.4,18.6-41.7,30.6-67.4,34.8-6.6,1.1-13.3,1.6-20,1.6Z"/>
  <path class="st0" d="M700.2,591.2c0,9.7-1.9,19.3-5.7,28.3-3.7,9-9.2,17.1-16.1,23.9l-23.7,24c-16.3,16.5-37.4,27.4-60.3,31.1-22.9,3.8-46.3.2-67.1-10.1-178.4-91.8-323.7-237-415.7-415.3-10.4-20.8-13.9-44.3-10-67.1,3.8-22.9,14.8-44,31.4-60.2l23.7-24c13.9-13.8,32.6-21.5,52.2-21.5s38.3,7.7,52.2,21.5l52.3,52.3c13.8,13.9,21.5,32.6,21.5,52.2s-7.7,38.3-21.5,52.2h0c-25.8,25.8-27.7,67.2-4.2,95.1,17.9,21.2,36.6,41.6,56.2,61.2,15.9,15.9,40.9,37.6,63.3,56.4,27.5,23.1,68,21.3,93.4-4.1h0c6.8-6.9,14.9-12.4,23.9-16.1,9-3.7,18.6-5.7,28.3-5.7s19.3,1.9,28.3,5.7c9,3.7,17.1,9.2,23.9,16.1l52,52c6.9,6.8,12.4,14.9,16.1,23.9,3.7,8.9,5.7,18.6,5.7,28.3Z"/>
</svg>