<?xml version="1.0" encoding="UTF-8"?>
<svg id="Layer_1" xmlns="http://www.w3.org/2000/svg" version="1.1" viewBox="0 0 800 800">
  <!-- Generator: Adobe Illustrator 29.2.1, SVG Export Plug-In . SVG Version: 2.1.0 Build 116)  -->
  <path d="M549.8,512.7c-8.3-3.9-48.1-23.6-55.6-26.7s-12.7-3.9-18.4,4.4c-5.7,8.3-21,26.2-25.8,31.9-4.8,5.7-9.2,6.1-17.5,0-23.9-9.6-45.9-23.2-65.2-40.2-17.4-16.4-32.2-35.5-43.7-56.4-4.8-7.9,0-12.2,3.5-16.6s7.9-9.2,12.2-14c3.2-4.2,5.8-8.7,7.9-13.6,2.2-4.6,2.2-9.9,0-14.4,0-3.9-18.4-43.7-25.4-59.9-7-16.2-13.1-14-17.9-14h-17.5c-8.3.3-16.2,3.9-21.9,10.1-18.5,17.7-28.8,42.2-28.4,67.8,2.2,31.1,13.7,60.7,32.8,85.3,35.1,52.2,83.2,94.4,139.5,122.5,19.2,8.3,34.1,13.1,45.9,17.1,16.6,5,34.1,6.1,51.2,3.1,22.9-4.6,42.9-18.6,55.1-38.5,5-12.2,6.7-25.5,4.8-38.5-2.2-3.1-7.4-5.2-15.7-9.2Z"/>
  <path d="M631.6,214.8c-61.1-61.7-144.6-96.1-231.4-95.4-179.7.9-324.7,147.4-323.7,327.1.3,56.4,15.2,111.7,43.3,160.6l-43.7,168.4,172.3-43.7c47.6,25.9,101,39.5,155.3,39.4h-3.5c179.7,1.2,326.4-143.6,327.6-323.3.6-87.5-34.1-171.5-96.2-233.1h0ZM400.2,715.2c-48.5,0-96.2-13.1-137.8-38.1l-9.6-5.7-102.4,26.7,27.1-99.7-6.1-10.1c-78.8-126.8-39.8-293.5,87.1-372.3,106.3-66,244-50.4,332.9,37.6,50.9,50.5,79.5,119.4,79.2,191.2-.2,149.2-121.1,270.1-270.3,270.3Z"/>
</svg>