<?xml version="1.0" encoding="UTF-8"?>
<svg id="Layer_1" xmlns="http://www.w3.org/2000/svg" version="1.1" viewBox="0 0 800 800">
  <!-- Generator: Adobe Illustrator 29.2.1, SVG Export Plug-In . SVG Version: 2.1.0 Build 116)  -->
  <defs>
    <style>
      .st0 {
        fill: #26441f;
      }
    </style>
  </defs>
  <path class="st0" d="M731,250.7l-130.9,65.9c-73,36.8-109.5,55.1-148.2,62.4-34.2,6.4-69.5,6.4-103.7,0-38.7-7.2-75.2-25.6-148.2-62.4l-130.9-65.9c0-32.9.5-50.2,8-63.6,7.1-12.5,18.3-22.8,32.1-29.1,15.7-7.3,36.3-7.3,77.5-7.3h426.6c41.2,0,61.8,0,77.5,7.3,13.8,6.4,25.1,16.6,32.1,29.1,7.5,13.4,8,30.7,8,63.6Z"/>
  <path class="st0" d="M731,308.3v253.3c0,37.3,0,56-8,70.3-7.1,12.5-18.3,22.8-32.1,29.1-15.7,7.3-36.3,7.3-77.5,7.3H186.7c-41.2,0-61.8,0-77.5-7.3-13.8-6.4-25.1-16.6-32.1-29.1-8-14.3-8-32.9-8-70.3v-253.3c0-2.3,0-4.5,0-6.7l130.9,65.9c73,36.8,109.5,55.1,148.2,62.4,34.2,6.4,69.5,6.4,103.7,0,38.7-7.2,75.2-25.6,148.2-62.4l130.9-65.9c0,2.2,0,4.4,0,6.7Z"/>
</svg>