<?xml version="1.0" encoding="UTF-8"?>
<svg id="Layer_1" xmlns="http://www.w3.org/2000/svg" version="1.1" viewBox="0 0 800 800">
  <!-- Generator: Adobe Illustrator 29.2.1, SVG Export Plug-In . SVG Version: 2.1.0 Build 116)  -->
  <defs>
    <style>
      .st0 {
        fill: #26441f;
      }

      .st1 {
        display: none;
        fill: none;
        stroke: #000;
        stroke-linecap: round;
        stroke-linejoin: round;
        stroke-width: 66.7px;
      }
    </style>
  </defs>
  <path class="st1" d="M210,166.7h490l-66.7,233.3H245.9M666.7,533.3h-400L200,100h-100M300,666.7c0,18.4-14.9,33.3-33.3,33.3s-33.3-14.9-33.3-33.3,14.9-33.3,33.3-33.3,33.3,14.9,33.3,33.3ZM666.7,666.7c0,18.4-14.9,33.3-33.3,33.3s-33.3-14.9-33.3-33.3,14.9-33.3,33.3-33.3,33.3,14.9,33.3,33.3Z"/>
  <path d="M633.3,600c-36.8,0-66.7,29.9-66.7,66.7s29.9,66.7,66.7,66.7,66.7-29.9,66.7-66.7-29.9-66.7-66.7-66.7ZM266.7,600c-36.8,0-66.7,29.9-66.7,66.7s29.9,66.7,66.7,66.7,66.7-29.9,66.7-66.7-29.9-66.7-66.7-66.7ZM726.6,146.6c-6.3-8.4-16.1-13.3-26.6-13.3H238.8l-5.9-38.4c-2.5-16.3-16.5-28.3-33-28.3h-100c-18.4,0-33.3,14.9-33.3,33.3s14.9,33.3,33.3,33.3h71.4l5.3,34.2c0,2.9.5,5.6,1.3,8.3l34.6,225c0,2.9.5,5.7,1.3,8.3l3.7,24.1h415.8c14.9,0,28-9.9,32-24.2l66.7-233.3c2.9-10,.9-20.9-5.4-29.2ZM608.2,366.7h-333.4l-25.6-166.7h406.7l-47.6,166.7ZM666.7,500h-371.4v-.5h-67.5l6,38.9c2.5,16.3,16.5,28.3,33,28.3h400c18.4,0,33.3-14.9,33.3-33.3s-14.9-33.3-33.3-33.3Z"/>
  <path class="st0" d="M732,175.8l-66.7,233.3c-4.1,14.3-17.2,24.2-32,24.2H217.6l-3.7-24.1c-.8-2.7-1.2-5.4-1.3-8.3l-34.6-225c-.8-2.7-1.2-5.4-1.3-8.3l-5.3-34.2h-71.4c-18.4,0-33.3-14.9-33.3-33.3s14.9-33.3,33.3-33.3h100c16.5,0,30.4,12,33,28.3l5.9,38.4h461.2c10.5,0,20.3,4.9,26.6,13.3,6.3,8.3,8.3,19.2,5.4,29.2Z"/>
  <path class="st0" d="M333.3,666.7c0,36.8-29.9,66.7-66.7,66.7s-66.7-29.9-66.7-66.7,29.9-66.7,66.7-66.7,66.7,29.9,66.7,66.7Z"/>
  <path class="st0" d="M700,666.7c0,36.8-29.9,66.7-66.7,66.7s-66.7-29.9-66.7-66.7,29.9-66.7,66.7-66.7,66.7,29.9,66.7,66.7Z"/>
  <path class="st0" d="M233.7,538.4l-6-38.9h67.5v.5h371.5c18.4,0,33.3,14.9,33.3,33.3s-14.9,33.3-33.3,33.3h-400c-16.5,0-30.5-12-33-28.3Z"/>
</svg>