<?xml version="1.0" encoding="UTF-8"?>
<svg id="Layer_1" xmlns="http://www.w3.org/2000/svg" version="1.1" viewBox="0 0 24 24">
  <!-- Generator: Adobe Illustrator 29.2.1, SVG Export Plug-In . SVG Version: 2.1.0 Build 116)  -->
  <defs>
    <style>
      .st0, .st1 {
        fill: #fff;
      }

      .st1 {
        fill-rule: evenodd;
      }
    </style>
  </defs>
  <path class="st1" d="M12,18.5c3.6,0,6.5-2.9,6.5-6.5s-2.9-6.5-6.5-6.5-6.5,2.9-6.5,6.5,2.9,6.5,6.5,6.5ZM12,16.4c2.4,0,4.4-2,4.4-4.4s-2-4.4-4.4-4.4-4.4,2-4.4,4.4,2,4.4,4.4,4.4Z"/>
  <path class="st0" d="M18.5,4.4c-.6,0-1.1.5-1.1,1.1s.5,1.1,1.1,1.1,1.1-.5,1.1-1.1-.5-1.1-1.1-1.1Z"/>
  <path class="st1" d="M.7,3.6c-.7,1.4-.7,3.2-.7,6.9v3.1c0,3.6,0,5.4.7,6.8.6,1.2,1.6,2.2,2.9,2.9,1.4.7,3.2.7,6.9.7h3.1c3.7,0,5.5,0,6.9-.7,1.2-.6,2.2-1.6,2.9-2.9.7-1.4.7-3.2.7-6.9v-3.1c0-3.7,0-5.5-.7-6.9-.6-1.2-1.6-2.2-2.9-2.9-1.5-.6-3.3-.6-7-.6h-3.1c-3.6,0-5.4,0-6.8.7-1.2.6-2.2,1.6-2.9,2.9ZM13.5,2.2h-7.2c-1,0-1.4.2-1.8.4-.8.4-1.5,1.1-1.9,1.9-.2.3-.3.8-.4,1.8v11.3c0,1,.2,1.4.4,1.8.4.8,1.1,1.5,1.9,1.9.3.2.8.3,1.8.4h11.3c1,0,1.4-.2,1.8-.4.8-.4,1.5-1.1,1.9-1.9.2-.3.3-.8.4-1.8V6.3c0-1-.2-1.4-.4-1.8-.4-.8-1.1-1.5-1.9-1.9-.3-.2-.8-.3-1.8-.4-1,0-2.3,0-4.1,0Z"/>
</svg>