<?xml version="1.0" encoding="UTF-8"?>
<svg xmlns="http://www.w3.org/2000/svg" version="1.1" viewBox="0 0 24 24.1">
  <!-- Generator: Adobe Illustrator 29.2.1, SVG Export Plug-In . SVG Version: 2.1.0 Build 116)  -->
  <defs>
    <style>
      .st0 {
        fill: #fff;
        fill-rule: evenodd;
      }
    </style>
  </defs>
  <g id="Layer_1" image-rendering="optimizeQuality" shape-rendering="geometricPrecision" text-rendering="geometricPrecision">
    <path class="st0" d="M20.5,3.5C18.2,1.2,15.2,0,12,0,5.5,0,.1,5.4,0,11.9c0,2.1.5,4.2,1.6,6L0,24.1l6.3-1.7c1.7,1,3.7,1.5,5.7,1.5h0c6.6,0,11.9-5.4,11.9-11.9,0-3.2-1.2-6.2-3.5-8.5h0s0,0,0,0ZM12,21.9h0c-1.8,0-3.5-.5-5.1-1.4l-.4-.2-3.8,1,1-3.7-.2-.4c-1-1.6-1.5-3.4-1.5-5.3,0-5.5,4.5-9.9,9.9-9.9,2.7,0,5.1,1,7,2.9,1.9,1.9,2.9,4.4,2.9,7,0,5.5-4.5,9.9-9.9,9.9h0s0,0,0,0ZM17.5,14.5c-.3-.1-1.8-.9-2-1-.3,0-.5-.1-.7.1-.2.3-.8,1-.9,1.2-.2.2-.3.2-.6,0-.3-.1-1.3-.5-2.4-1.5-.9-.8-1.5-1.8-1.7-2.1-.2-.3,0-.5.1-.6.1-.1.3-.3.4-.5s.2-.3.3-.5c0-.2,0-.4,0-.5,0-.1-.7-1.6-.9-2.2-.2-.6-.5-.5-.7-.5-.2,0-.4,0-.6,0s-.5,0-.8.4c-.3.3-1,1-1,2.5s1.1,2.9,1.2,3.1c.1.2,2.1,3.2,5.1,4.5.7.3,1.3.5,1.7.6.7.2,1.4.2,1.9.1.6,0,1.8-.7,2-1.4.2-.7.2-1.3.2-1.4,0-.1-.3-.2-.6-.3h0s0,0,0,0Z"/>
  </g>
</svg>