<?xml version="1.0" encoding="UTF-8"?>
<svg id="Layer_1" xmlns="http://www.w3.org/2000/svg" version="1.1" xmlns:xlink="http://www.w3.org/1999/xlink" viewBox="0 0 1920 272.7">
  <!-- Generator: Adobe Illustrator 29.2.1, SVG Export Plug-In . SVG Version: 2.1.0 Build 116)  -->
  <defs>
    <style>
      .st0 {
        opacity: .2;
      }

      .st1, .st2 {
        stroke: #d1d3d4;
        stroke-linecap: round;
        stroke-linejoin: round;
        stroke-width: 2px;
      }

      .st1, .st2, .st3 {
        fill: none;
      }

      .st2 {
        stroke-dasharray: 20;
      }

      .st4 {
        fill: #333;
      }

      .st5 {
        clip-path: url(#clippath);
      }
    </style>
    <clipPath id="clippath">
      <rect class="st3" width="1920" height="272.7"/>
    </clipPath>
  </defs>
  <rect class="st4" width="1920" height="272.7"/>
  <g class="st5">
    <g class="st0">
      <path class="st1" d="M606.1,694.6c-5.5-6-11.9-11.4-18.9-16.2-8.1-5.6-16.8-10.9-22.5-19.1-13.2-19.1-12.4-36.5,13.4-41.7,5.7-1.2,11.3-2.8,16.9-4.4,26.2-7.4,45.6-22.5,46.4-60.8.6-25.3-8-49.8-3-75.6,3.5-17.7,7.4-34.9,16.3-50.6,6.5-11.5,16.1-20.7,26-29.2,15.3-13.2,16.8-25.7,2.1-41.8-6.4-7.1-13.5-13.6-20.2-20.3-8.6-8.5-15.7-18.1-20.2-29.3-9.4-23.9-5.3-38.6,11.5-47.9,14.5-8.1,29-16.3,43.6-24.3,10-5.6,20.6-8.6,31.6-8.6,13.9,0,28.5.4,38.3,13.2,5.3,7,6.9,15.4,9,23.7,2,7.6,3.3,16.1,13.5,16.8,9.5.7,16.1-3.5,20.4-12.3,2.7-5.5,4.9-11.2,6.5-17,3.4-12.5,14-21.1,31.6-11.2,7.2,4.1,12.1,10.6,15.8,17.9,5.4,10.5,10.2,21.4,13.4,32.7,8.9,32.2,22.7,61.3,46.1,85.8,10.3,10.8,19.2,23.1,27.3,35.8,10.4,16.4,11.5,32.7-1.2,48.4-9.4,11.7-15.9,25.2-22.3,38.4-16.9,34.8-37.8,65-75.6,80-14.2,5.6-23.2,16.9-28.3,31.4-7.4,21.2-17.9,40.7-31.4,58.7-6,8.1-11.5,16.7-15.8,25.8-.2.5-.4.9-.6,1.4"/>
      <path class="st1" d="M1920,190.9c-13.9,3.1-26.3,10.5-36.9,20.3-7.2,6.5-8.9,8.2-1.2,19,6.1,8.6,14.4,15,22.6,21.4,5.2,4.1,10.8,7.9,15.6,12.5.4.4.8.8,1.2,1.1,7,6.9,7.1,12.3,1.2,20.2-.8,1-1.6,2.1-2.4,3.1-6.9,8.5-15.4,15.5-22.6,23.8-8.7,10-15,21.3-16.2,34-.8,8,1.8,16.7,5,24.8,5.6,14.1,13.1,27.3,18.1,41.6,11.1,31.9-5.1,58.5-31.6,67.6-33.1,11.4-67.1,18.7-101.5,24.4-22.3,3.7-40.6-6.8-56.3-22.2-12.5-12.3-26.8-20.3-45-15.6-6,1.5-12.1,2.1-18.1,4.1-33.2,11.2-61.8,1.4-87.9-20-11.8-9.6-20.1-21.3-25.7-35.1-1.8-4.5-3.8-9.1-5.9-13.4-3.6-7.3-8.9-14.4-17.8-14.5-8.9,0-13.6,7.1-16.8,14.4-9.3,21.4-26.4,32.7-47.2,42.2-24.9,11.4-43.5,30.8-54.5,56.8-4.1,9.8-1.8,19.6-1.9,29.4-.5,30.4-6.5,39.2-35.1,48.4-13.4,4.3-26.8,8.5-39.4,14.8-16.9,8.4-28.3,22.2-36.2,39.3-9.1,19.7-24.2,33.4-43.8,43-9.7,4.7-17.5,10.8-23.5,18.2"/>
      <path class="st1" d="M1510,446.5c5.9,2.6,12.2,3.5,18.2,6.4,20.9,10,40.8,21.7,58.2,36.7,15.7,13.5,32.2,16.1,50.9,9.7,3.4-1.2,7-2.1,10.3-2.9,19.2-4.7,37.8-4.4,54.2,9.6,5.7,4.9,12.1,9.1,18.9,12.7,16.7,9,35.1,8.9,53,11,13.3,1.5,24.3,6.7,31.5,18.2,6.1,9.7,10.9,20.4,12.2,31.5,3.4,29.1,13.7,55.6,27.4,81,5.1,9.5,12.1,16.5,23.4,20.8,11.6,4.4,23.4,8.5,34.9,13.4"/>
      <path class="st1" d="M1920,327.8c-9.6,7.3-12.9,21.5-9,35.4,2.2,8,5.7,15.4,9,23"/>
      <path class="st1" d="M1730.5,694.6c9-3,18.4-4.1,28.5-2.6,7.5,1.1,15.1,1.9,22.6,2.6"/>
      <path class="st1" d="M1498.4,694.6c4.9-6.2,10-12,17.2-16.1,16.9-9.6,33.6-6.6,49.5,1.4,10.1,5.1,20.4,9.8,30.7,14.7"/>
      <path class="st1" d="M1239,694.6c2.2-1.8,4.6-3.4,7.2-5,23.6-14.5,44.5-32.3,60.2-55.9,6.6-10,16.7-17.5,27.9-22.7,13.3-6.2,27.5-10,41.7-13.4,19.6-4.6,32.1-16.9,37.9-35.2,3.4-10.7,3.4-22.4,4.7-33.7,3.3-29.7,15.5-53.3,42.9-67.6,14.9-7.8,31-11.7,47.3-14.6"/>
      <path class="st2" d="M568.9,694.6c-2.9-2.4-5.8-4.7-8.8-6.9-22.9-16.9-30.5-41.8-35.8-67.7-2.1-10,5.6-19.2,15.5-22.5,9.6-3.2,19.4-4.1,29.3-4.4,31.4-1,45.7-15,44.9-46.2-.6-23.5,1-46.9,5.1-69.8,4.8-26.2,14.3-51.2,27.8-74.4,11.3-19.5,9.2-37.7-4.5-55.2-11.1-14.1-22.4-27.9-33.8-41.7-10.2-12.3-10.8-25.6-3.4-39.4,6.8-12.7,16.3-21.7,30.2-27.5,11-4.7,23.4-7.1,32.9-15.3,16.5-14.1,36.1-19,57.4-19.3,19.8-.3,34.8-8.8,42.9-28,4-9.5,10.3-17.6,19-23.8,10-7.1,18.4-5.7,24.8,4.6,2.7,4.3,5.3,9,6.5,13.6,3.9,15.5,13.5,27,26.4,34.6,22.9,13.4,34.4,34.3,43.9,57.7,9.4,23.1,18.7,46.5,35.9,65.3,9,9.8,16.1,20.5,21.4,32.7,8.3,19.1,20.8,35.2,36.9,48.7,8.3,6.9,18.1,11.6,26.1,18.9,6.6,6.1,7.7,12.7,2.2,19.2-6.3,7.5-15.3,10.7-23.7,14.5-21.4,9.8-36.8,25.3-47.4,46.2-6.7,13.2-13.6,26.3-20.1,39.5-8.1,16.6-19.3,30.7-35.1,40.4-15.7,9.7-28.5,22.3-37,38.5-11.2,21.4-18,44.7-24.7,67.8"/>
      <path class="st2" d="M1146.3,694.6c.3-.5.6-.9.8-1.4,15.8-26.7,17.9-52.8-2.1-79-13.4-17.6-26-36-37.5-55-5.4-8.8-7-18.6-2.8-26.9,4.6-9,14.7-5.5,23.2-4.9,21,1.5,36.9-.5,43.7-23.6,4.6-15.6.9-30.3-10-42.7-7.3-8.4-16.6-15-22.6-24.8-13-21.3-28.6-40.2-50.6-53-14.1-8.1-17.4-23.8-5.5-39.4,1.4-1.9,2.5-4.1,4.4-5.7,13.7-12.4,24.9-27,36.2-41.6,10.9-14,24.7-24.1,41.5-30.8,14-5.5,26-6,38.5,3.5,11.4,8.7,16.6,13.5,36.1-.8,16.6-12.2,35.1-20.4,56.1-23.1,11.3-1.4,22.6-4.1,33.9-6.3,12.4-2.4,20.6-8.7,23.8-21.4,1.6-6.4,2.9-12.8,4.4-19.2,4.2-18.4,12.4-23,31.6-21.7,14.7,1,29.4,1.1,44.1-4.9,19-7.8,38.1-15.3,56.2-25,11.5-6.2,24.3-7.6,37.1-4.6,9.4,2.2,18.8,4.5,28.2,6.6,34.2,7.5,64.2,22.7,90.2,46.2,19.6,17.7,25.9,40.9,30.5,65.4,3.7,19.8,16.2,29.3,35.9,30.6,12.8.8,25.6.1,38.3,1.1,24.9,1.8,44.2-4.5,54.3-32.7,6.7-18.8,17.2-35.1,37-42.8,9-3.5,8.7-8.8,5.9-17-6.2-18.5-16.1-33.3-32.8-44.1-9.5-6.2-19.8-12-27.2-21.1-9.5-11.6-14.2-23.5-10.7-39.6,3.5-16.1,11.3-29.8,18.7-43.8,14.3-27.1,33.6-49.3,63-60.9,17.6-6.9,35.8-12.1,54.1-16.8,2.8-.7,5.3-1.6,7.7-2.6"/>
      <path class="st1" d="M2.4,159.3c9.2.7,17.9,4.2,27,5.8,22.7,3.8,43.4,11.3,58.7,30.2,14.3,17.6,17.8,25,6.8,48.6-9.8,21-23.4,38.8-39.6,55.2-21.2,21.5-29.5,49.1-33.5,77.7-3.8,27.5,8.2,40.3,32.4,44.7,6.8,1.3,14.1,1.7,21.4,1.5,20.3-.5,38.9,4.5,54.1,19,15.8,15.1,32.7,28.9,51.9,39.3,20.7,11.1,28.2,28.1,27.3,50.9-.5,12.3-1.2,24.6,1.5,37.3,4,18.4,12.9,34.6,19.7,51.7,4.1,10.3,12.2,16.9,22.3,21.6,9.9,4.5,20.2,7.6,30.4,11.3,33.6,12.3,53.4-2.8,63.9-25.2,16.6-35.5,42.7-64.8,61.7-98.7,9.2-16.6,12-30.7,2.1-47.7-8-13.7-15.3-28.6-14.7-44.9,1.1-28.1,11.7-53.6,27.2-76.3,11.6-17.1,32.6-19.2,51.4-22.6,28.3-5.2,57.3-6,85.6-11.5,34.6-6.6,56.5,12.8,68.7,36.1,4.9,9.4,5.5,19.9,2,29.2-13.2,35.2-25.8,70.5-38.1,106-4.1,11.8-8.9,23.1-10.6,36-2.9,21-4.3,25.8-31.1,29.3-6.4.8-12.9.9-19.1,2.4-18,4.2-34.1,14.2-33,38.2.7,15.8,6.8,29.5,11.6,43.9,5.6,16.9,12.4,32.9,23,46.5"/>
      <path class="st1" d="M64.4,694.6c15.8-21.1,37.7-35,64.2-43.2,26.7-8.2,49.4,6.5,57.7,27.1,2.1,5.3,4,10.7,5.7,16.1"/>
      <path class="st2" d="M236.8-70.6c-1.9,9.4-3.4,18.9-5.8,28.1-6.2,23.1-24,34.4-44.8,43-20.8,8.7-40.7,9.9-61-1.1-6.7-3.6-14.6-4.2-22.4-3.6-7.4.5-13.4,4.1-13.2,11.3.5,20.9-3,41.3-4.5,62-1.9,26,5.3,51.5,4.8,77.7-.4,22.8,28.4,40.7,48.8,31.1,18.7-8.8,37.8-14.9,57.6-20,19.2-4.9,34.6-16.7,48.4-30.3,28.3-28,56.9-55.8,85.7-83.3,10.1-9.7,21.3-18.2,33-25.5,9.7-6.1,21.6-8.3,33.6-8.4,14.6,0,29.3.7,44-.9,17.4-1.9,32.5-8.2,45-20.4,8-7.8,15.4-16.3,24.9-22.4,5.1-3.3,10.6-4.3,16.9-2.4,13.1,3.9,27.7,22.5,28.2,36.2.9,25.7-7.7,46.2-31.6,58.6-26,13.5-43.1,35.8-56,61-9,17.6-22.6,27-40.9,31.4-18.2,4.4-32.4,13.2-37.2,32.7-2.6,10.4-2.8,21.5-.6,31.4,2.8,13,2.1,25.8,1.2,38.4-.8,10.5-9.1,18.7-18.7,23.6-28.7,14.8-49.4,37.5-66.5,64.2-9.8,15.3-21.4,19.4-41.6,5.7-6.3-4.3-11.9-9.5-15.6-15.9-10.8-18.9-28.2-29.2-47.6-35.6-16.8-5.5-29.9-14.8-40.5-28.5-1-1.3-2.3-2.2-3.3-3.4-15-18-29.4-18.7-42.5.2-11.1,15.9-25,28.2-39.6,40.5-22.1,18.7-30.8,43.3-28.3,71.9.9,10.1,11,22.5,21.4,24.5,6.2,1.2,12.5,2.8,19.1,2.6,17.5-.6,32.6,5.2,45.1,17.9,12.1,12.4,24.2,24.8,39.3,34,9,5.5,19.1,8.4,28.3,13.2,25.5,13.4,34.5,28.3,28.8,56.4-3.6,17.9,1.7,33.5,6.2,49.6,2.4,8.6,6.4,16.7,10.1,24.8,10.1,21.6,32.6,34.4,59.6,34.8,11,.2,20-4.8,25.9-14.5,15.3-25,32.1-49.4,42.3-76.8,8.6-23,7-47.8,1.7-71.9-3.6-16.3-8.1-32.5-5.9-49.6.6-4.5,1.8-8.6,3.7-12.3,9.2-17.9,14.3-37,19.1-56.4,4.5-18.4,14-34.6,45-34.9,23.6-.3,47.2,1.5,69.9-7.7,19-7.7,27.4-17.5,26.8-37.4-.4-15.2,2.8-30.1,7.5-43.7,7.4-21.6,13.8-43.2,17.1-65.6,3-19.7,12.5-35,26.2-48.4,10.2-10,19.3-20.8,26.1-33.7,11.2-21.4,5.5-42.7-.7-63-6.2-20.5-11.5-40.5-11.2-62.1.2-8.9-3.4-17.9-.8-27"/>
      <path class="st1" d="M635,694.6c-7.6-11.4-15.2-22.8-22.9-34.2-5.1-7.6-3.1-15.4,4.4-21.3,11.9-9.4,26.8-11.9,40.5-17,9.9-3.7,19.2-3.5,28.2,2.3,15.4,9.9,32.1,15.2,50.7,14.9,10.3-.2,12.6,4.6,10.2,14.4-3.3,13.9-8.4,27.2-12.5,40.8"/>
      <path class="st1" d="M1460.1,694.6c1-5.2.9-10.9-.5-17.2-6.7-28.7,16.2-49.2,48.2-43.8,12.8,2.2,25.5,4.6,38.3,7,13.6,2.5,26,8.4,36.2,18.7,17.2,17.2,39.2,26.5,61.2,35.3"/>
      <path class="st2" d="M1261.3,694.6c.2-.1.4-.3.7-.5,21.5-14.6,44.1-28.1,62-47.2,16.6-17.8,37.2-25.6,60.9-27,17.5-1,33-5.2,40.7-23.6,3.6-8.8,7-17.8,8.9-27.1,4.3-21.3,7-43,15.9-63,6.2-13.9,15.2-25.2,31.5-28.2,22.1-4,43.7-1,64.1,7.1,20.5,8.1,31,26.3,39.8,45.8,8.2,18.3,12.9,25.2,32.8,7.2,24.4-21.9,47.6-26.2,78.5-10.4,15.5,7.9,31.6,14.8,48.6,17.6,23.8,3.9,39.2,16.3,47.3,38.6,7.3,19.9,14.1,39.9,21.2,59.8,6,16.8-.9,30-16.8,32.4-7.7,1.2-15.6,1.1-23.7.6-14.9-.9-30.1-6.4-45.1.6-8.1,3.8-15.9,7.9-23.7,12.2-3.1,1.8-6.3,3.5-9.5,5"/>
      <path class="st1" d="M619.9-70.6c-4,5.6,1.8,10.3,1.2,15.8-4.1,41.4,6.3,80.5,18.7,119.5,8.2,25.8,13.9,52.5,15.1,79.9.6,13.9,4.8,25.6,21.3,28.3,10.7,1.7,20.6,6.5,31.5,8.1,16.3,2.3,28.7-1.3,37.3-16,10.8-18.7,24.4-35.2,39.3-50.8,16-16.6,22-38.3,28.2-59.7,2.2-7.5,5.2-14.7,9.2-21.3,5.9-10,12.1-11,20.2-3.4,12.7,11.9,21.2,26.9,21.9,43.9.4,10.5-4.2,21.5-9.4,31.6-10.2,19.7-10.2,40.7-5.7,61.9,1.3,6.1,4.5,11.8,9.1,15.6,24.3,20,35.4,47.8,47.4,75.5,8.4,19.4,19.2,38.4,38.2,49.4,18.2,10.4,25.9,25.3,29.5,45.3,6,33.5,39.5,38.2,57.3,28.5,11.6-6.3,13.5-17.4,16.3-27.5,3-11,6.1-22.1,7.4-33.6.9-8,5.1-14.8,13.3-18,16.8-6.6,31-17.3,43.8-29.5,13.8-13.2,30.5-22,45.4-33.4,4.7-3.6,9.6-7.1,13.3-11.6,6.7-8.2,9.7-18.3,5.4-27.9-4.3-9.6-13.9-13.4-24.5-13.6-15.5-.3-30.9,0-46.2-3.3-22.7-4.9-44.7-30.9-50.7-56.5-5.5-23.5.1-44.8,11.3-65.4,20.5-37.9,30.8-79.5,42.7-120.6,1.1-3.8,3.8-7,3.6-11.2"/>
      <path class="st1" d="M1899.9-70.6c-8.5,17.5-25.1,26.2-40.8,34.6-40.6,21.7-69.1,54.6-90.9,93.9-12,21.7-13.1,45.7-11.1,69.7.7,8.2,5.4,16.1,11,22.5,15.4,17.5,21.9,37.7,20.3,60.9-.9,12.9.3,25.5-4.2,38.4-5.6,16.3-20.5,23.6-36.5,22.4-24.8-1.9-39.5-16.9-49.6-38.2-17.6-37.1-46.5-62.7-82-82.6-30.5-17-63.9-25.4-96-37.8-14.7-5.7-28.6-2-40.5,8.8-11.5,10.5-23.8,19.7-38.3,26-15.6,6.7-31,9.3-47.4,2.3-16.1-6.8-33.7-5.9-50.7-8-24.4-3.1-44.1-16-60.5-32.9-10.6-10.9-12.6-29.5-1.4-50.4,8.8-16.4,21.3-22.5,39.4-20.4,15.9,1.8,31,8.1,47.3,8.1,13.3,0,26.3-2.3,39.4-3.8,15.3-1.8,30.6-2.3,45,1.8,21.5,6.2,39.4-.5,57.7-10.3,15.7-8.5,29.5-20.2,47.1-25.3,6.5-1.9,12.8-2.1,19.2-3.2,19.7-3.5,22.4-13.8,15.4-30.1-6.6-15.6-16.4-29.8-21-46.3"/>
      <path class="st1" d="M937.6-70.6c-5.2,23.6-16.5,42-40.5,51-4.2,1.6-8.5,4.7-12.7,7.3-18.5,11.5-20.5,24.5-12.7,42.8,9.8,22.9,16.3,46,12.4,70.1-5.1,31.2,6.8,58,16.5,85.6,5.8,16.4,8,33.8,15.3,49.8,4.5,9.9,10.2,18.7,18.3,25.7,8.3,7.3,16.8,6.5,23.5-2.2,9.9-13,14.1-28.7,19.3-43.9,8.1-23.4,15.9-27.9,30.4-28.1,20.6-.3,39.7,13.2,46,32.6,1.5,4.8,3.3,9.5,6,13.3,11.7,15.9,30.5,16.2,49.4,1.2,1.2-1,2.2-2.3,3.4-3.4,10.8-10.1,9.6-16.7-4.6-21.3-10.7-3.4-21.9-5.7-32.6-9.3-7.6-2.5-14.8-6.3-19.1-13.4-10.5-17.1-19.9-34.6-22.8-55.1-2.7-19.3-3.6-38.3.2-57.5,1.7-8.9,6.3-16.4,11.3-23.6,21.5-30.8,33.6-65.4,42.9-101.4,1.7-6.8,3.9-13.5,5.5-20.3"/>
      <path class="st2" d="M1511.1-69.4c5.5,7.2,12.9,12.8,18,20.3,6.7,9.8,6.3,22.2-1.1,31.5-9,11.1-20.1,18.7-34.9,20.4-24.7,2.8-47.9,11-71.1,19.9-20,7.6-40.7,14.7-63,11.6-11.2-1.5-21.9-4.9-32.6-8.1-36.6-11.1-55.3,7-65.6,35-7.7,21-9.5,42.4-8.8,64.3.3,8.2,5.3,14.5,9,21.4,6.6,12.4,5.2,16.6-6.7,23.8-12.8,7.7-26.2,6.7-39.4,3-6.1-1.7-12.1-4.3-18.1-6.4-16.7-5.9-33.8-5-50.7-1.1-37.9,8.8-64.8-5.6-75.3-42.9-4.7-16.6-.1-32.9,6.6-48.4,13.8-31.6,28.2-63.1,35.8-96.9,3.6-16.2,11.1-31.5,11.5-48.4"/>
      <path class="st1" d="M474.5,589.6c4.8,5.9.5,13,2.4,19.1,8.6,28.2,12.3,57.5,20.1,85.9"/>
      <path class="st1" d="M219.4,694.6c.3-3.2,1.4-6.4,3.9-9.2,6.4-7.3,15.2-4.1,22.3-1.9,5.4,1.7,10.7,5.6,16,8.3,2.4,1.2,4.9,2.2,7.4,2.8,4.2,1,8.7,1,13.4,0,.2,0,.3,0,.5-.1,35.6-8.5,64.2-27.1,80.8-60,18.9-37.6,45.1-67.2,82.6-86.4,8.2-4.2,15.3-9.8,16.4-18.2,1.5-12.4,1.6-25.2-5-37.2-7.7-13.9-20.4-23.3-29.5-35.9-7.2-9.9-12.5-20.8-9.8-32.7,7.6-34.1,29.5-56.4,62.9-65,30.1-7.7,61.4-9.9,92.3-11.2,27.3-1.1,44.4,21.4,37.1,49.1-5,19-14.3,36.5-20.3,55.2-13.9,43-40.9,74.4-83.3,91.2-18.8,7.4-32.6,17.9-30.3,40.6.2,2.2-2.9,2.4-2.3,4.5"/>
      <path class="st1" d="M1302.7,282c-23.1,2.7-36.4,15.7-41.9,38.3-3,12.4-7.4,24.4-8.9,37.2-1.9,15.8,3.6,29.9,9.3,43.9,9.5,23.3,3.4,43.4-11.4,62-2,2.5-4.3,4.7-6.7,6.8-16.1,13.2-25.2,30.7-26.6,50.8-1.2,18.8-6.1,37.3-4.9,56.3.6,9.6,4.3,17.9,11.2,24.8,3.2,3.2,6,3.3,9.1,0,1.4-1.6,3.5-2.8,4.4-4.6,10.9-21,29.7-33.4,48.5-46.2,15-10.2,25-25.2,33.6-40.6,13-23.3,30.1-42.4,52-57.4,21.5-14.7,40.9-32,61.8-47.6,14.7-11,22.1-26.2,16.2-45.9-3.9-13.1-13.6-18.2-25.1-21.2-9.2-2.3-18.7-3.3-28.1-5-18.7-3.3-33.4-14.7-47.4-26.8-13-11.2-25.8-22.7-43.9-24.8"/>
      <path class="st1" d="M1467.2-70.6c-2.9,8.3-8.4,15.1-15.9,18.9-11.6,6-17.7,15.4-21.3,27.2-8.4,27.4-27.9,42.6-55.2,47-16.1,2.6-31.4-3.9-46.1-9.9-14.9-6.1-30.2-10.5-46.2-11.1-26.8-1-42.4,10.6-43.9,42.7-1,21.5-4.2,42.3-13.4,62-7.9,16.8-20.3,27-38.4,30.3-18.7,3.4-36.5,10.4-55.2,13.6-22.3,3.8-42.9-13.4-44.2-36.1-1-18.4,7.2-34.1,12.5-50.7,9-28,24.1-53.7,31.6-82.2,4.4-16.8,7.4-34,12.4-50.7"/>
      <path class="st1" d="M1603.5-69.4c9.8,22.9,29.3,35.3,49.5,47.4,13.9,8.3,26.4,18.4,38.3,29.2,21.9,19.8,20.7,34.9-2.2,56.4-8.9,8.4-19.4,14.5-29.4,21.3-18.5,12.5-19,15.3-11.4,37.3,4.9,14.2,13.2,26.1,22.9,37,17.5,19.7,34.5,39.8,52.8,58.7,4,4.1,8.1,7.7,13.4,10.3,11.6,5.6,18.4,2.5,19.1-10.3,1-17.9,1.5-36-9-51.7-9.3-13.8-12-28.8-11.3-45.1.7-17.2.6-34.6,0-51.8-.6-19.6,7-34.6,22.6-46.2,35.6-26.6,66.4-58.2,94.7-92.3"/>
      <path class="st1" d="M900.1,694.6c-1.4-1.2-2.8-2.4-4.1-3.7-8.7-8.4-9.4-12.8-2.1-22.4,5.4-7.1,12-13.8,15.3-21.7,14.4-34.8,36-66.3,47.6-102.4,8.5-26.4,26.5-39.6,54.1-41.9,28-2.3,39.4,2.7,44.7,28.5,7,34.1,20.5,65.3,36.6,95.6,5.8,10.8,10.7,21.7,12.2,33.9"/>
      <path class="st1" d="M1054.5,694.6c6-1.1,12.1-2.1,18.3-2.5,18.9-1.5,29.4-12.1,32.7-30.4"/>
      <path class="st1" d="M245.8-70.6c-1.6,31.1-3.3,62.1-32.6,82.3-9,6.2-17.5,13.2-26.2,19.9-12.2,9.5-26.9,13.7-42.6,13.8-6.1,0-12,1.4-16.8,4.7-12.1,8.3-14.3,21.2-5.7,33.6,9.6,13.8,20.4,26.6,28.2,41.7,5.5,10.8,16.1,13,27,13.5,15.7.7,29.7-4.7,41.6-14.6,24.3-20.3,47.8-41.2,69.4-64.7,23.1-25.2,52-44.7,82.9-60,14.4-7.1,30.8-3.8,46.1-4.3,32.6-1.1,57.4-13.1,72.2-43.2,3.7-7.5,9.4-14.1,11.2-22.6"/>
      <path class="st1" d="M1052.5-69.4c-14.2,2.6-25.9,11.7-40.5,14-7.5,1.2-15.1,3.1-22.6,3.8-15.5,1.4-28.2,6.7-35.9,20.6-8,14.5-20.1,23.6-34.9,30.6-22.3,10.5-24.5,14.2-20.1,38,3.7,20.4,6,41.2,13.2,60.9,5.9,16.2,13.2,31.6,27.1,42.8,14.2,11.4,29.7,5.7,43.8.7,12.9-4.5,19.1-15.7,19.4-30,.3-11.3,0-22.5,1.6-33.9,2.4-17.7,10.4-31.7,22.1-43.7,17.6-18.1,30.1-38.7,35.8-63.3,3.1-13.6,7.8-27.8-3.3-40.5"/>
      <path class="st1" d="M135.4,669.6c17.4,1.8,29.4,10.4,37.5,25.1"/>
      <path class="st1" d="M85.2,694.6c11.7-14.1,28.8-22.7,49.1-23.9"/>
      <path class="st1" d="M642.4-70.6c-1.7,24-8.8,48-5.3,72,3.9,27,14.4,52.4,33.9,71.7,14.6,14.4,20.1,30.9,22.2,50,1,9.7,5.2,17.5,14.6,21.3,9.1,3.6,16.2-.9,22.5-6.8,14.8-13.8,26.1-29.5,28.4-50.6,1.1-10,6.2-18.6,13.3-26,16.6-17.2,21.4-38.9,25.3-61.8,3.4-20.3-.6-39.9-.5-59.8,0-3.4-.6-6.9,1.1-10.1"/>
      <path class="st1" d="M3.5,466.8c17.6-12,36.3-21.5,57.5-24.6,19.4-2.8,39.6-4.3,56.2,9,20.1,16.2,40.1,32.7,58.6,50.6,7.4,7.1,10.7,16.5,10.2,26.9-.7,15.6-6.4,29.7-15.9,41.6-24.4,30.3-50.1,59.6-81.1,83.3-15.9,12.2-29.9,25.9-41.9,41"/>
      <path class="st1" d="M255.9-70.6c.1,24.3-1.2,48.3-6.6,72.1-2.6,11.6-9,19.9-18.1,27.1-11.7,9.4-22.6,19.4-27.3,34.7-4.3,14.1-2.6,17.8,11.5,16.9,15.7-1,30.2-6.7,38-20.4,12.7-22.5,33.9-32.2,55.7-41.2,12-5,22.9-11.2,32.4-19.6,15.4-13.5,32.2-20.8,53.1-19.2,15.3,1.2,30.4-.3,45.1-6.4,20.5-8.4,30.2-24.8,37.1-44.2"/>
      <path class="st1" d="M3.5,498.3c18-12,34.1-26.6,55.1-34.1,17-6,33.9-9.1,49.5.6,17.4,10.9,31.8,25.9,44.1,42.5,6.8,9.1,8.3,18.6,3.5,29.3-3.9,8.9-9.4,16.6-16,23.5-19.5,20.4-37,42.1-52.4,66.1-16.5,25.7-37.6,47.9-60.4,68.3"/>
      <path class="st1" d="M663.8-70.6c1.2,15.7-4,30.3-8,45-7.6,27.9-.5,51.9,19.4,72,13,13.1,31.5,18.2,49.4,3.4,11-9.1,23.2-16.4,33.9-25.8,12.7-11.1,17.4-25.4,20.7-41.6,3.7-18.1-1.1-35.4-.5-53"/>
      <path class="st1" d="M1003,667.3c23.2-3.9,41.7-18.7,43.8-36.1,2.4-19.2-1.8-37.4-13.6-52.8-15.5-20.4-35.1-30.7-51.4,4.5-8.4,18.1-13.6,37.8-11.7,58.4,1.1,11.4,11.1,22.3,23.7,24.7,2.6.5,5.4-.4,7.9,1.2"/>
      <path class="st1" d="M268.3-70.6c-2.2,17.5-2.3,34.9,3.4,51.8,5.3,15.6,14.4,20,30.4,18.3,17.8-1.9,30-12.6,41.5-24.1,13.9-14,29.2-18.7,48.7-15.9,25.8,3.7,47-4.5,59.7-29"/>
      <path class="st1" d="M1635.1,623.4c8.8,20.3,40.3,29.2,59.7,16.9,10-6.3,18.9-14,27.1-22.5,14.8-15.3,13.6-27.6-3.3-40.7-9.5-7.3-20.3-10.7-31.6-12.2-12.6-1.6-22,3.8-29.4,14.4-9.4,13.4-17.2,27.4-22.4,42.9"/>
      <path class="st1" d="M687.5-70.6c3.9,20.2-1.3,39.3-6.5,58.6-2.7,9.7-3.8,20.1,3.1,29.3,5.8,7.8,15.6,11.9,23.6,7.7,13.9-7.3,28.6-13.7,39.5-25.8,12-13.3,16.6-28.2,11.7-46.3-1.9-6.9-1.4-14.6-4.9-21.3"/>
      <path class="st1" d="M1630.6-69.4c21.8,24.1,47,45.5,76.9,56.6,42.2,15.7,67.2,10.4,98.9-34,5.1-7.2,9.6-14.7,13.4-22.6"/>
      <path class="st1" d="M3.5,348.5c7.6-22.3,14.6-44.7,33.6-61,12-10.3,21.5-22.5,27.5-38,11-28.7.1-46.8-18.5-57.3-13.4-7.6-28.1-12.7-43.8-13.8"/>
      <path class="st1" d="M2.4,117.6c13.5-2.5,26.4-7.5,38.1-13.9,16.7-9.1,21-25.4,19.4-43.6-1.2-12.5-8.5-21.6-19.3-25.5-12.1-4.3-24.8-8-38.2-7.2"/>
      <path class="st1" d="M815.9-70.6c0,17.4.6,34.9,9.2,50.6,5.2,9.6,9.3,10.2,20.1,4.6,15.5-8.1,30.5-17.3,45.2-26.9,9.8-6.4,14-16.4,19.1-26"/>
      <path class="st1" d="M1659.9-69.4c11.6,12.2,24,23.9,38.4,32.4,25,14.7,65.5,15.4,83.2-15.6,2.6-4.6,4-9.7,5.6-14.6"/>
      <path class="st1" d="M3.5,683.1c15.9-7.9,29-19.1,40.7-32.6,23.8-27.3,4.8-60-22.6-64.6-6.4-1.1-12.7-2-19.2-2"/>
      <path class="st1" d="M1342.1,390.2c-8.8-10.4-10.3-23.6-13.4-36.1-1.3-5.2-3.7-9.4-6.9-13.5-3.9-4.9-9.8-6-14.5-4.1-4.9,1.9-8,6.8-8.2,13.2-.2,7.8,1.6,14.6,6.9,20.2,8.8,9.2,20.8,14.3,30.5,22.5,1.5,1.3,3.7-.6,5.6-1"/>
      <path class="st1" d="M80.1-69.4c-4.1,9.7-6,20.2-6.5,30.4C71.9-9.2,64.2.2,33.9,4.8c-10.4,1.6-20.9,3-31.5,2.3"/>
      <path class="st1" d="M347.2-70.6c-4.7,15.1-13.8,27.6-26.1,36.9-12.1,9.2-25.9,8.8-34.9-6.4-5-8.6-4.8-18-6.6-27.1"/>
      <path class="st1" d="M2.4,264c18.7.5,32.7-10.6,37.1-30.4,2.3-10.5-10.8-27.8-24.8-32.4-3.8-1.3-7.8-4-12.3-2.5"/>
      <path class="st1" d="M221-70.6c-2.6,2.5-.9,6-2,9.1-10.1,27.9-27.5,28.8-49.6,16.6-10-5.5-18-14.3-23.8-24.5"/>
      <path class="st1" d="M2.4,97.3c10.3-1.9,18.9-7.1,25.8-14.7,7-7.8,6.6-18.5-1.1-25.7-6.8-6.3-15-10.8-24.7-11.4"/>
      <path class="st1" d="M1006.3,289.9c5.4,10.3,14.9,11,24.8,10.1,5.4-.5,9.6-7.4,6.6-11.1-4.5-5.5-10.2-9.7-17.9-10.3-7.7-.6-11.2,3.9-13.5,10.2"/>
      <path class="st1" d="M53.1-70.6c-4.3,20.7-14,37.6-33.8,47.3-5.4,2.7-11.1,3.7-16.9,4.5"/>
      <path class="st1" d="M1694.8-70.6c6.6,9.8,15.4,17.1,27.1,18.9,15.4,2.5,28.1-2.5,34.9-17.8"/>
      <path class="st1" d="M344.9,360.9c2-2.5,5.6-3.2,6.8-6.7,1.5-4.3,2.3-8.6-.3-12.3-1.7-2.5-5.2-2.1-7.7,0-4.3,3.4-7.6,7.9-6.5,13.4.5,2.3,3.3,4.9,6.5,5.7"/>
      <path class="st1" d="M1010.8,611c-8.2,2.9-9.6,9.3-9.1,16.9.5,6.9,6.1,5.6,8.9,4.3,9-4.3,9.2-13.4,1.2-21.2"/>
      <path class="st1" d="M23.8-69.4c-5.5,7.4-10.8,15.2-21.4,15.8"/>
      <path class="st1" d="M1163,6.1c-14.4,2-22.1,12.5-27.9,23.8-12.3,23.9-17.9,49.9-20.3,76.5-1.2,13.1,8.8,21.4,21.1,17.8,15.3-4.6,30.9-8,46.3-12,19.1-5,34.4-28.1,25.8-53.1-5.4-15.5-14.5-29-24.8-41.6-4.8-5.9-11.5-9.7-19.1-11.3"/>
      <path class="st1" d="M506.1,11.7c-29.5,15.4-61,19.7-93.5,15.6-22.7-2.9-43.3,1.7-58.3,18.5-20.8,23.2-45.7,41.5-69.1,61.6-7.7,6.6-14.8,13.7-21.3,21.5-21.9,26.4-50.3,43.1-82.3,53.9-7.2,2.4-12.7,6.8-17.8,11.6-11.1,10.4-11.4,16.7-4.7,31.4,5.4,11.9,12.1,22.9,19.3,33.7,9.4,14.3,23.8,21.9,39.5,26.9,16.8,5.4,31.9,13.1,45.1,24.8,2.5,2.3,5.8,4,8.8,5.9,8.5,5.6,15.8,3.1,22.6-2.5,4.9-4.1,9.8-8.4,13.5-13.5,13.1-18.2,28.8-33.1,48.5-44,16.9-9.3,21.1-31.4,18.2-49.5-3.3-21.2-1.7-41.7,12.1-59.8,5.6-7.3,12.1-12,21.5-12.3,27.9-1.1,44.5-17.2,57.8-40.3,13.5-23.4,27-47,44.6-67.9,7.7-9.1,6.4-12.8-3.3-15.7"/>
      <path class="st1" d="M1898.7,28.6c6.8,0,13.7-.3,20.3,2.3.3.1.7.3,1,.4"/>
      <path class="st1" d="M1897.6,28.6c-28.1,5.8-50.5,20.3-65.2,45.1-11.5,19.4-4.5,29,13.5,34.6,21.4,6.6,42.2,13.8,62.1,24.7,4,2.2,8,3.5,12,4.2"/>
      <path class="st1" d="M954.5,34.2c-12.3,2.5-22.5,8.1-24.6,21.4-2.2,14.7,2.4,27.6,14.5,37.1,9.5,7.5,18.4,6.2,23.4-4.6,6-13,8.2-27.4,6.6-41.5-1.3-11.7-4-12.4-18.8-12.4"/>
      <path class="st1" d="M400.1,47.7c-11.8,2.2-22,6.6-28.3,18-7.4,13.4-4,24.1,10.2,30.5,10.2,4.6,20.6,9,31.6,11.1,21.6,4.1,47.5-23.6,42.8-44.9-1.5-6.6-6.9-8.7-12.4-10.1-14-3.5-28.4-4.7-42.8-4.6"/>
      <path class="st1" d="M1588.9,53.4c-8.3,1.9-17.1,2.4-23.7,9-7.8,7.8-8,13.2-2.3,22.6,10,16.7,47.2,20.5,64.3,10,5.4-3.3,4.9-15.7-1.2-23.5-9.1-11.5-20.5-18.9-36-18.1"/>
      <path class="st1" d="M1316.2,55.6c-24.1,10.4-26.3,28.6-5.7,45.1,14.6,11.7,30.9,17.2,49.6,16.9,19.2-.3,38.4-.3,57.5,3,8.7,1.5,17.3-1.1,24.9-7.4,13.6-11.3,12-24.6,2.1-35.1-11.6-12.4-26.2-17.5-42.8-18-19.2-.6-38.4,3.5-57.5-1-8.9-2.1-17.8-4.1-27-3.4"/>
      <path class="st1" d="M130.9,692.1c4.9-.2,9.3.7,13.3,2.5"/>
      <path class="st1" d="M129.7,692.1c-2.6,1.1-5.4,1.7-8,2.5"/>
      <path class="st1" d="M1307.2,687.6c10.1-1.5,17.8,1.1,23.5,7"/>
      <path class="st1" d="M1306.1,687.6c-6.4,1.6-12.5,4.1-18.4,7"/>
      <path class="st1" d="M1902.1,624.5c6.1.4,12,1.6,17.9,3.2"/>
      <path class="st1" d="M1901,624.5c-13.6,5-16.1,12.5-5.5,21.2,7.5,6.2,15.7,11.3,24.5,15"/>
      <path class="st1" d="M432.8,595.2c12.5,1.1,20.7,16.5,18.2,31.6-2,12.2-8,21.4-15.9,30.5-9.4,10.8-15.7,22.7-14.2,37.3"/>
      <path class="st1" d="M335,694.6c4.8-4.6,9.7-9.1,14.5-13.7,14.7-13.8,29.1-27.4,39.6-45,10.3-17.2,23.7-32.1,42.6-40.7"/>
      <path class="st1" d="M1873.9,578.3c9.1.1,17,2.5,24.9,7.7,6.9,4.5,13.9,8.9,21.1,12.7"/>
      <path class="st1" d="M1872.8,578.3c-23.3,10-29.4,29.8-18.1,56.3,7.8,18.3,21.5,30,39.5,37.1,8.8,3.5,17.4,7.4,25.8,11.7"/>
      <path class="st1" d="M1663.2,542.3c-13.2,2.3-20.6,10.9-26,22.5-6.7,14.3-15.1,27.8-27,38.2-16.8,14.7-13,30-.9,46.2,11.1,14.8,29,18.1,44.9,25,19.2,8.2,37,4.3,52.8-7.1,17.1-12.2,34.8-17.2,55.4-12.3,5.2,1.2,10.8.3,15.7-1.3,7.4-2.4,11.3-12.4,7.7-23.3-5.6-17.3-11.1-34.7-22.2-49.7-7.3-10-17.7-14.3-28.3-19.1-16.1-7.3-32.9-12.4-49.6-17.8-6.8-2.2-14.2-1.2-21.4-1.2"/>
      <path class="st1" d="M1004.1,525.4c-25.2,3.9-33,24.6-40.1,44.1-6.7,18.3-13.9,36.7-17.3,56.2-2.3,13.2-2.7,26.7,1.5,39.3,3.9,12,14.9,18,26.7,20.2,32.1,5.9,60.5-3.1,85.6-23.5,12.5-10.1,11.2-24.9,8.4-37.1-6.3-27.1-17.8-52.7-29.7-77.9-6.9-14.7-18-21.5-33.9-21.4"/>
      <path class="st1" d="M728,511.9c-3.9,1.2-4.6,3.5-2.2,6.7,1.4,1.8,3,1.7,4.5,0,2.5-2.8,1.1-4.8-1.1-6.8"/>
      <path class="st1" d="M1510,504c-27,5.4-41.7,22.3-43.8,50.7-.4,5-3.8,9.4-2.4,14.6,3.6,13.4,10.2,23,24.7,27.3,18.3,5.5,35.7,14.3,55.3,14.3,20,0,26.6-9.4,24-29.3-1.7-12.9-4.4-25.6-7-38.3-5.6-27.3-19.7-40.7-49.7-39.4"/>
      <path class="st1" d="M1364.7-46.9c-12.5,2.4-24.2,6.5-35,13.5-8.9,5.7-10.7,12.8-4.5,20.3,8.9,10.7,20.7,17,33.8,20.1,16.4,4,34.8-8.7,37.1-24.6,2.1-14.1-12.6-28.2-30.4-29.3"/>
      <path class="st1" d="M76.8,483.7c-14.2,2.9-27.2,8-37.2,19.1-7.2,8-8.5,17.1-5.6,27.1,3.3,11.2,8.7,21.6,14.7,31.5,7.3,11.9,16.7,15.6,31.4,11.1,18.6-5.7,34.7-15.3,44-33.6,4.9-9.7,5-18.7-1-28.3-10.6-16.8-23.8-28.6-45.2-27"/>
      <path class="st1" d="M1012-32.3c-17,2.8-29.2,10.1-31.9,29.2-1.1,7.8.7,13.7,5,19.1,4.3,5.5,9.7,1.3,14.5,0,13-3.2,22.6-11.2,29.2-22.6,8.2-14.1,1.5-24.9-15.7-25.9"/>
      <path class="st1" d="M301,473.6c-18.1,8-21.7,25.4-27,41.7-4.4,13.4-2.7,26.4,4.6,38.2,10.7,17.4,20.9,16.7,33.6,5.6,19.2-16.6,20.5-40,8.9-67.4-3.5-8.4-9.2-15.8-19-18.1"/>
      <path class="st1" d="M1083,420.6c10.5,0,18,5,23.7,13.5,6.1,9.1,10.7,18.7,13.6,29.3,2.5,8.9.3,15.1-8,19.2-3.6,1.8-7.6,2.9-11.3,4.5-18.4,7.8-27.4,14-27.1,40.5.1,10.9,2.9,21.2,5.8,31.5,5.6,20.2,17.9,36.6,30.3,53,10,13.3,20.5,26.7,22.5,43.9,1.6,13.7-2.9,27.5-11.1,38.6"/>
      <path class="st1" d="M853.7,694.6c-1.9-6.5-1.7-13.9.4-21.7,5.5-21.2,19-37.1,32.8-52.9,17.6-20,38.7-37.1,48.5-63.1,4.2-11.2,9.4-21.9,14.3-32.8,10.7-23.9,27.9-36.8,54.3-39.6,29.3-3.1,51.4-17.2,61-47,2.6-8.1,7.5-15,16.8-16.9"/>
      <path class="st1" d="M201.8,390.2c-1.8-.3-2.2,1.6-3.4,2.2-13.3,7.6-13.8,14.9-1.1,22.5,12.4,7.4,26.1,10.3,40.5,9,11.1-1,15-8.9,9-17.9-6.6-9.9-16.5-14.6-28.1-15.7-5.2-.5-10.5,0-15.8,0"/>
      <path class="st1" d="M561.3,373.3c-26.7,5-52.5,11.7-72.4,32.4-4.9,5.1-13,6.9-20.1,9.2-16.6,5.2-19.5,15.7-7.9,28.2,12.6,13.6,22.7,28.7,31.8,44.9,9.9,17.6,23.7,20.5,41.4,10.2,22.2-12.9,33.9-33.2,39.4-57.4,2.7-11.9,7.5-23.2,10-35,3.9-18.8,3.3-32.2-21.2-32.6"/>
      <path class="st1" d="M795.6,366.5c-21.4,4.5-28.7,21.2-35.1,39.4-4.9,14-.9,26.1,8.2,35.9,14.8,15.7,27.2,32.7,37.2,51.9,9.3,17.8,23.9,21.6,42.5,13.7,16.3-6.9,28.4-24.8,23.8-43.9-2.3-9.5-4.8-18.9-8-28.1-4.7-13.8-11.2-26.2-23.6-35-9.1-6.5-17.3-14.1-24.8-22.5-5.3-5.9-11.8-9.2-19.2-11.2"/>
      <path class="st1" d="M1789.4,364.3c-8,1.7-16.4,2.2-22.6,9-5.9,6.5-8.1,15.5-3.2,22.5,10.3,14.6,21.3,29.1,36.1,39.3,16.4,11.3,39.2,5.5,44.1-10.9,1.4-4.7-.3-7.8-1.5-11.3-6.4-18.3-16.2-34.1-33.7-44-5.7-3.2-11.7-4.2-18.1-4.5"/>
      <path class="st1" d="M1602.4,344c-14.9,4.2-16.3,18.7-18.4,29.4-3.2,15.9-1.6,32.6,12.7,45,11.3,9.8,30.1,13.4,40.6,6.7,12.5-7.9,17.9-23.5,13.5-39.4-6.4-23.3-25.8-40.4-47.3-41.7"/>
      <path class="st1" d="M1795.1,336.1c-21,1.8-42,2.4-63.1,2.2-7.3,0-14.5.4-21.4,2.4-20.8,6.1-24.9,17.7-12.4,34.8,23.5,32.1,54.7,55.5,87.9,76.6,18.1,11.5,50.7,8.1,67.5-3.5,11.4-7.9,15.8-27,8.9-40.4-9.3-18.3-19.4-36.1-27.1-55.2-7.2-17.9-23.2-18-39.3-17"/>
      <path class="st1" d="M829.4,310.2c-26.3,7.6-53,13.4-80,18.3-16.8,3-17.9,8.4-16.2,25.7,2.2,22.1-1,43.6-15.4,61.9-6.1,7.9-15,11.2-23.7,14.5-16.1,6.1-26,19.9-26,36.1,0,5.5,1.3,10.9,5.9,13.2,4.2,2.1,8.6-.9,12.3-4.1,5.4-4.7,11.2-9.1,16.9-13.5,12-9.3,25.4-8.7,38.3-.2,18.3,12,28.3,29.6,34.8,49.7,2.2,6.8,5,13.3,9.1,19.1,13.4,18.7,32.5,20.8,52.9,16.8,47.1-9.2,70.9-49.8,73.4-82.1.7-8.7,2.6-17.5,4.8-25.8,3.6-13.3-1.7-22.8-8.3-32.8-9.2-13.9-20.8-25.7-31.7-38.1-8.9-10.1-15.2-21.2-19-33.9-1.2-3.9-2.8-7.6-4.4-11.3-4.3-10-11.5-14.9-22.6-13.5"/>
      <path class="st1" d="M142.1,310.2c-10,2.3-20.4.7-30.5,3.3-17.9,4.6-33.3,11.3-38.4,31.6-4.3,17.2,2.8,28,20.4,29.3,4.1.3,8.3.5,12.4,0,17-2.2,27.8,5.8,35,20.3,3.9,7.9,8.5,15.4,13.6,22.5,12.5,17.3,30.7,25.8,50.6,31.7,12.6,3.8,25.4,7,36.2,15.5,7.5,5.9,9.6,12.7,10.2,21.6,1.3,19.1-7.1,37.4-4.6,56.3,3.1,23.3,9.8,45.9,29.4,60.5,16.3,12.2,32.8,8.9,42.5-4.2,12.6-17.1,24.4-34.8,31.6-55.1,8.4-23.6,3-46.8-2.6-69.8-1.7-6.7-3.8-13.7-6.3-20.4-6.2-17-14.3-31.6-32.7-38.6-7.5-2.9-14.6-8.2-20.4-14.3-12.5-13.3-26.8-24.5-41.8-34.8-11-7.6-20.2-16.4-27.2-28.1-7.6-12.7-19.8-20-34.7-22.8-13.8-2.6-27.8-3.3-41.7-4.4"/>
      <path class="st1" d="M1304.9,303.4c-19.7,1.3-26.1,16.2-30.2,31.6-5.7,21.7-3.7,42.7,9.7,62,6.4,9.2,11.3,19.5,17.2,29.1,12.1,19.8,25.3,24.8,46,15.6,22.7-10.1,43.2-23.9,56.4-45.9,9.1-15.2,7.9-24.5-8.1-32.2-21.7-10.5-39.9-24.7-56.3-42-9-9.5-20.5-15.7-33.6-18.2"/>
      <path class="st1" d="M1384.9,252.8c-15.3,5.6-18.2,16-7.9,28.2,8,9.5,18.6,12.4,30.4,11.2,11.4-1.1,17.5-13,11.2-22.4-7.6-11.3-18.7-17.1-32.6-17"/>
      <path class="st1" d="M1567.5,196.4c-7.8,1.9-14.7,5.6-20.2,11.3-12.8,13.2-27.6,23.7-42.8,33.8-19.5,12.9-26.1,38.1-15.8,58.5,4.5,9,12.6,13.4,21.5,15.5,6.5,1.5,13.3,2.9,20.2,2.6,16.7-.8,32.7,2.2,48.5,7.7,8.4,2.9,16.3,2.2,23.8-5.3,33.3-33.1,30.9-79.1-.3-111.6-9-9.4-20.3-14.3-33.7-12.5"/>
      <path class="st1" d="M1550.6,172.8c-23.6,6.6-47.9,7.1-72.1,9.3-24.9,2.3-47.3,13.6-69.8,23.6-9.9,4.4-10.3,11.1-2.3,18.9,9.5,9.3,21,16.4,30.4,25.9,10.8,11,16.7,23.7,15.8,39.5-.7,12.5-7.9,21.8-20.4,23.6-29.5,4.3-56.6.2-77.8-23.6-2.5-2.8-5.6-5-7.8-7.9-16.8-21.9-35.7-24.3-67.6-12.2-23.5,8.9-33.1,29.8-40.5,51.7-2.8,8.3-6.5,15.9-12.3,22.6-5.9,6.8-11.2,4.2-15.8-.3-6.3-6-10.2-13.9-14.8-21.2-2.7-4.3-5.7-8.4-8.9-12.5-13.2-16.6-26.3-15.7-39.3-3.2-14.1,13.6-24.2,29.7-23.9,50.5,0,4.9,1,9.3,3.5,13.5,6.2,10.6,14.9,18.7,24.7,26.1,12.8,9.7,25.5,6.9,38.3,1.8,2.2-.9,4.8-3.1,7-3.9,8.6-3.5,17.3-10.5,26.9-2.5,10.6,8.7,15.4,25.1,11.3,37.2-3.3,9.9-9.2,18.1-17,24.7-13.8,11.6-18.2,27-20.4,44-2.5,20-7.3,39.2-21.1,55.3-14.6,17-16.4,26.4-3.4,47.2,9.8,15.6,14.6,32.9,18,50.7,3,15.3,7.3,18.4,22.4,15.7,24.5-4.4,43.6-16,50.7-41.6,6.1-22.2,18.4-38.8,39.3-49.9,12.9-6.8,24.7-15.9,37.4-23.2,12.3-7,17.8-16.1,17.1-30.6-1.1-21.2,8.4-38.3,24.5-51.8,19.5-16.2,37.6-34.1,61.8-44.4,19.6-8.3,29.9-25.8,32.6-46.9.5-4,1.9-7.6,2.9-11.1,2.5-9,8.1-16,18.8-17.1,29.7-3.1,48.1,8.7,55.2,36.1,3.9,15,6.6,30.7,17.1,42.7,27.5,31.3,61,30,93.3,13.5,3.4-1.7,7.5-3.2,10-5.6,14.1-13.5,27.7-7.6,39.6,1.3,11,8.3,22.2,16.2,33.7,23.9,22.5,15.2,46.7,16.3,72.3,12.3,9.5-1.5,18.9-3.3,28.1-5.8,34.6-9.6,46-28.8,31.6-64.2-5.5-13.6-13.7-25.9-17.1-40.5-4.3-18.4-3.3-35.7,7-51.8,2.6-4.1,5.5-8.1,7.8-12.5,8.9-17.2,2.9-31.3-15.8-37.2-14.8-4.7-24.5-1.4-33.8,11.2-6.1,8.2-10.1,17.7-17.8,25-10.1,9.5-21.7,15.1-35.1,14.3-29.3-1.8-58.6.4-87.9.2-18-.1-30.3-12.1-33.8-32.6-2.1-12.3-2.5-25-5-37.1-5.1-24.5-21.3-42-41.2-56.5-16.6-12.1-35.3-15.4-55.3-14.6"/>
      <path class="st1" d="M613.1,166c-14.9,4.2-25.1,24.4-19.1,38.3,1.5,3.4,4.4,6.3,7.8,7.8,14.1,6.2,45.1-9.8,48.4-24.7,2.4-10.9-1-16.3-12.4-19.1-7.8-1.9-15.7-2.4-23.7-2.3"/>
      <path class="st1" d="M307.8,135.6c-11.5,4.8-20.5,12.9-29.3,21.4-19.4,18.6-37,38.9-58.4,55.5-19.1,14.8-13.1,32.8,5.6,42.3,19.3,9.7,39.2,9.9,57.3-4.2,10.8-8.4,21.1-17.5,32.7-24.8,16.8-10.6,16.3-27.6,14.2-43.9-1.2-9.7-3.1-19.6-3.9-29.4-1-14-3.3-16.9-17.1-16.9"/>
      <path class="st1" d="M339.3,97.3c-31.2,4.8-52.2,25.6-72,47.4-17.4,19.2-36.2,36.1-59.8,47.2-35.1,16.5-27.5,46.5-6.9,67.6,5.9,6,12.8,9.6,20.4,12.3,13.9,5,28.3,8.2,42.8,11.5,11.9,2.7,21.9-.7,30.3-8.2,13.9-12.3,27.4-24.8,43.9-33.9,19.4-10.7,22.3-30.1,18.8-49.2-2.9-16-.5-30.9,1.5-46.3,1.2-9,3.5-17.9,3.4-27-.1-18.3-3.3-21.4-21.4-21.4"/>
      <path class="st1" d="M518.5,93.9c-16.9,4.9-26.6,17.6-32.4,32.8-8.6,22.7-24,35.8-47.6,40.6-16.1,3.3-28.8,10.9-33.1,29-2,8.3.4,15.6,2,22.5,3.1,13.2,6.3,26.6,10.6,39.6,7.3,22.1,28.7,29.7,46.3,28,8.4-.8,15.4-9,17-17.9,1.9-10.9,2.6-22,5.6-32.7,4.5-16.5,14.1-29.9,24.7-42.9,18.3-22.2,27.5-48.4,30.2-76.6,1.6-16.8-5.1-22.3-22.2-22.5"/>
      <path class="st1" d="M1905.5,1.5c4.9-.2,9.7-.2,14.5,0"/>
      <path class="st1" d="M1904.4,1.5c-22.6,4.2-44.7,9.9-63.1,24.8-21.3,17.3-34.7,40.1-43.7,65.4-5.1,14.3,6.4,30.9,24.6,36.9,8.1,2.6,16.2,5.4,24.7,7.1,13.3,2.7,25.4,8.2,36.1,16.8,11,8.8,24.1,12.3,37,12.7"/>
    </g>
  </g>
</svg>